<svg width="120" height="120" viewBox="0 0 120 120" xmlns="http://www.w3.org/2000/svg">
  <!-- Cat body -->
  <ellipse cx="60" cy="80" rx="25" ry="20" fill="#fbbf24"/>
  <!-- Cat head -->
  <circle cx="60" cy="50" r="22" fill="#fbbf24"/>
  <!-- Cat ears -->
  <polygon points="45,35 50,20 55,35" fill="#fbbf24"/>
  <polygon points="65,35 70,20 75,35" fill="#fbbf24"/>
  <!-- Inner ears -->
  <polygon points="47,32 50,25 53,32" fill="#f59e0b"/>
  <polygon points="67,32 70,25 73,32" fill="#f59e0b"/>
  <!-- Eyes (surprised) -->
  <circle cx="52" cy="45" r="5" fill="#000"/>
  <circle cx="68" cy="45" r="5" fill="#000"/>
  <circle cx="52" cy="43" r="2" fill="#fff"/>
  <circle cx="68" cy="43" r="2" fill="#fff"/>
  <!-- Nose -->
  <polygon points="60,52 58,55 62,55" fill="#ec4899"/>
  <!-- Mouth (surprised) -->
  <circle cx="60" cy="58" r="3" fill="#000"/>
  <!-- Whiskers -->
  <line x1="35" y1="48" x2="48" y2="50" stroke="#000" stroke-width="1"/>
  <line x1="35" y1="52" x2="48" y2="52" stroke="#000" stroke-width="1"/>
  <line x1="72" y1="50" x2="85" y2="48" stroke="#000" stroke-width="1"/>
  <line x1="72" y1="52" x2="85" y2="52" stroke="#000" stroke-width="1"/>
  <!-- Tail (upright) -->
  <path d="M 85 75 Q 90 50 88 75" stroke="#fbbf24" stroke-width="8" fill="none"/>
</svg>